<svg width="14" height="14" viewBox="0 0 14 14" fill="none" xmlns="http://www.w3.org/2000/svg">
<path d="M2.33332 0H4.08332C5.37198 0 6.41665 1.04467 6.41665 2.33332V4.08332C6.41665 5.37198 5.37198 6.41665 4.08332 6.41665H2.33332C1.04467 6.41668 0 5.37201 0 4.08332V2.33332C0 1.04467 1.04467 0 2.33332 0Z" fill="black"/>
<path d="M2.33332 7.58301H4.08332C5.37198 7.58301 6.41665 8.62768 6.41665 9.91633V11.6663C6.41665 12.955 5.37198 13.9997 4.08332 13.9997H2.33332C1.04467 13.9997 0 12.955 0 11.6664V9.91636C0 8.62768 1.04467 7.58301 2.33332 7.58301Z" fill="black"/>
<path d="M9.91682 7.58301H11.6668C12.9555 7.58301 14.0001 8.62768 14.0001 9.91633V11.6663C14.0001 12.955 12.9555 13.9997 11.6668 13.9997H9.91682C8.62816 13.9997 7.5835 12.955 7.5835 11.6664V9.91636C7.58347 8.62768 8.62814 7.58301 9.91682 7.58301Z" fill="black"/>
<path d="M8.16682 4.08298H9.91682V5.83298C9.91682 6.15514 10.178 6.4163 10.5001 6.4163C10.8223 6.4163 11.0835 6.15514 11.0835 5.83298V4.08298H12.8335C13.1556 4.08298 13.4168 3.82182 13.4168 3.49966C13.4168 3.17749 13.1556 2.91633 12.8335 2.91633H11.0835V1.16633C11.0835 0.844168 10.8223 0.583008 10.5001 0.583008C10.178 0.583008 9.91682 0.844168 9.91682 1.16633V2.91633H8.16682C7.84466 2.91633 7.5835 3.17749 7.5835 3.49966C7.5835 3.82182 7.84466 4.08298 8.16682 4.08298Z" fill="black"/>
</svg>
