<svg width="22" height="24" viewBox="0 0 22 24" fill="none" xmlns="http://www.w3.org/2000/svg">
<path d="M21.7522 15.1391L19.4615 12.8987V9.93105C19.4588 7.88024 18.6787 5.90327 17.2721 4.3824C15.8654 2.86153 13.9322 1.9048 11.8462 1.69722V0H10.1538V1.69722C8.0678 1.9048 6.13455 2.86153 4.72791 4.3824C3.32128 5.90327 2.54118 7.88024 2.53846 9.93105V12.8987L0.247839 15.1391C0.0891739 15.2942 2.5483e-05 15.5047 0 15.7242V18.2069C0 18.4264 0.0891481 18.6369 0.247833 18.7921C0.406517 18.9473 0.62174 19.0345 0.846154 19.0345H6.76923V19.6774C6.75089 20.7272 7.12928 21.7468 7.8319 22.5407C8.53452 23.3346 9.51196 23.847 10.5769 23.9798C11.1651 24.0368 11.759 23.9729 12.3204 23.792C12.8819 23.6111 13.3983 23.3173 13.8367 22.9295C14.275 22.5416 14.6255 22.0683 14.8656 21.5401C15.1057 21.0118 15.2301 20.4402 15.2308 19.8621V19.0345H21.1538C21.3783 19.0345 21.5935 18.9473 21.7522 18.7921C21.9109 18.6369 22 18.4264 22 18.2069V15.7242C22 15.5047 21.9108 15.2942 21.7522 15.1391ZM13.5385 19.8621C13.5385 20.5206 13.271 21.1521 12.795 21.6177C12.3189 22.0833 11.6732 22.3449 11 22.3449C10.3268 22.3449 9.68109 22.0833 9.20504 21.6177C8.72898 21.1521 8.46154 20.5206 8.46154 19.8621V19.0345H13.5385V19.8621ZM20.3077 17.3793H1.69231V16.0669L3.98285 13.8265C4.14154 13.6713 4.23072 13.4609 4.23077 13.2414V9.93105C4.23077 8.17513 4.94395 6.49113 6.21343 5.24951C7.48291 4.00788 9.20469 3.31035 11 3.31035C12.7953 3.31035 14.5171 4.00788 15.7866 5.24951C17.056 6.49113 17.7692 8.17513 17.7692 9.93105V13.2414C17.7693 13.4609 17.8585 13.6713 18.0172 13.8265L20.3077 16.0669V17.3793Z" fill="white"/>
</svg>
