<svg width="13" height="9" viewBox="0 0 13 9" fill="none" xmlns="http://www.w3.org/2000/svg">
<path d="M0 8.20286V0.797143C0 0.788571 0.0125362 0.707143 0.0376085 0.552857L4.28737 4.28143L0.0501446 8.46C0.0167149 8.34 0 8.25429 0 8.20286ZM0.564127 0.0385714C0.622629 0.0128571 0.693668 0 0.777242 0H12.2228C12.298 0 12.3732 0.0128571 12.4484 0.0385714L8.18611 3.78L7.62199 4.24286L6.50627 5.18143L5.39055 4.24286L4.82642 3.78L0.564127 0.0385714ZM0.576663 8.96143L4.85149 4.75714L6.50627 6.13286L8.16104 4.75714L12.4359 8.96143C12.369 8.98714 12.298 9 12.2228 9H0.777242C0.710383 9 0.643523 8.98714 0.576663 8.96143ZM8.72517 4.28143L12.9624 0.552857C12.9875 0.63 13 0.711429 13 0.797143V8.20286C13 8.28 12.9875 8.36572 12.9624 8.46L8.72517 4.28143Z" fill="black"/>
</svg>
