<svg width="19" height="15" viewBox="0 0 19 15" fill="none" xmlns="http://www.w3.org/2000/svg">
<path d="M12.2716 8.83316C12.2716 10.3716 11.0201 11.6231 9.48163 11.6231C7.94319 11.6231 6.69216 10.3716 6.69216 8.83316C6.69216 7.29472 7.94319 6.04321 9.48163 6.04321C11.0201 6.04321 12.2716 7.29519 12.2716 8.83316ZM18.1312 4.87157V12.7957C18.1312 13.8521 17.2747 14.7086 16.2183 14.7086H2.74492C1.68853 14.7086 0.832031 13.8521 0.832031 12.7957V4.87157C0.832031 3.81518 1.68853 2.95868 2.74492 2.95868H5.09777V2.29682C5.09777 1.37242 5.84666 0.623047 6.77154 0.623047H12.1917C13.1166 0.623047 13.8655 1.37242 13.8655 2.29682V2.9582H16.2183C17.2747 2.95868 18.1312 3.81518 18.1312 4.87157ZM13.7062 8.83316C13.7062 6.50374 11.811 4.60855 9.48163 4.60855C7.15269 4.60855 5.25749 6.50374 5.25749 8.83316C5.25749 11.1626 7.15269 13.0578 9.48163 13.0578C11.811 13.0578 13.7062 11.1626 13.7062 8.83316Z" fill="white"/>
</svg>
