<svg width="30" height="37" viewBox="0 0 30 37" fill="none" xmlns="http://www.w3.org/2000/svg">
<path d="M29.203 8.5418L21.3632 0.607031C21.2577 0.498633 21.1101 0.433594 20.9554 0.433594H6.49209C4.30537 0.433594 2.5335 2.35586 2.5335 4.72617V20.5668H0.606934V31.3055H2.5335V32.2738C2.5335 34.6369 4.3124 36.5664 6.49209 36.5664H25.4343C27.621 36.5664 29.3929 34.6441 29.3929 32.2738V9.01152C29.3929 8.83809 29.3296 8.66465 29.203 8.5418ZM20.7585 1.76328L27.5788 8.67188H23.8663C22.1507 8.67188 20.7585 7.2627 20.7585 5.53555V1.76328ZM28.1976 32.2738C28.1976 33.9287 26.9601 35.2729 25.4343 35.2729H6.49209C4.96631 35.2729 3.72881 33.9287 3.72881 32.2738V31.3055H16.8773C19.4437 31.3055 21.5179 28.899 21.5179 25.9361C21.5179 22.9732 19.4366 20.5668 16.8773 20.5668H3.72881V4.72617C3.72881 3.07129 4.96631 1.72715 6.49209 1.72715H19.5632V5.53555C19.5632 7.97812 21.4898 9.96543 23.8663 9.96543H28.1976V32.2738ZM4.30537 28.6461V23.2262H6.32334C6.90694 23.2262 7.36397 23.3779 7.68741 23.6887C8.01084 23.9994 8.17959 24.4041 8.17959 24.91C8.17959 25.4158 8.01787 25.8277 7.68741 26.1313C7.35694 26.4348 6.89991 26.5938 6.32334 26.5938H5.18428V28.6461H4.30537ZM9.24834 28.6461V23.2262H10.9921C11.6601 23.2262 12.2015 23.443 12.6233 23.8693C13.0452 24.2957 13.2491 24.8521 13.2491 25.5242V26.348C13.2491 27.0273 13.0382 27.5766 12.6233 28.0029C12.2015 28.4293 11.6601 28.6461 10.9921 28.6461H9.24834ZM17.4468 25.6109V26.3336H15.3233V28.6461H14.4374V23.2262H17.8124V23.9488H15.3163V25.6037H17.4468V25.6109Z" fill="#ED1C24"/>
<path d="M7.06143 25.5965C7.22315 25.4158 7.30753 25.1918 7.30753 24.9172C7.30753 24.6426 7.22315 24.4113 7.06143 24.2307C6.89971 24.05 6.65362 23.9561 6.32315 23.9561H5.18408V25.8711H6.32315C6.65362 25.8639 6.89268 25.7771 7.06143 25.5965Z" fill="#ED1C24"/>
<path d="M10.9923 23.9561H10.1274V27.9307H10.9923C11.4142 27.9307 11.7517 27.7861 11.9978 27.4898C12.2438 27.1936 12.3704 26.8178 12.3704 26.3553V25.5242C12.3704 25.0689 12.2438 24.6932 11.9978 24.3969C11.7517 24.1006 11.4142 23.9561 10.9923 23.9561Z" fill="#ED1C24"/>
</svg>
