<svg width="20" height="20" viewBox="0 0 20 20" fill="none" xmlns="http://www.w3.org/2000/svg">
<g clip-path="url(#clip0_982_1675)">
<path d="M15.9378 20.0994L15.9378 20.0993C13.2399 19.9989 10.693 19.3261 8.35046 17.9807C4.06177 15.5183 1.36886 11.8553 0.268671 7.03476C0.0346877 6.01028 -0.0690679 4.96988 -0.0977174 3.9242L15.9378 20.0994ZM15.9378 20.0994H15.9415M15.9378 20.0994H15.9415M15.9415 20.0994C16.0077 20.0994 16.0747 20.0997 16.142 20.1C16.2321 20.1004 16.3225 20.1009 16.4114 20.1005L16.4121 20.1005C17.2138 20.0918 17.9757 19.8989 18.5934 19.345L15.9415 20.0994ZM2.29115 0.293074L2.29116 0.29307C2.78454 0.102444 3.31686 -0.032881 3.84343 -0.0863885L2.29115 0.293074ZM2.29115 0.293074C1.45787 0.615135 0.84543 1.07155 0.44873 1.67841M2.29115 0.293074L0.44873 1.67841M5.76634 0.742284L5.76635 0.742292C6.17572 1.27843 6.59564 1.80542 7.01636 2.33341C7.23466 2.60738 7.45318 2.88162 7.67055 3.15754C8.46317 4.16329 8.39546 5.45029 7.50785 6.37463L7.50781 6.37466C7.4039 6.48277 7.30029 6.59333 7.19618 6.70443C7.00221 6.91141 6.8065 7.12025 6.60385 7.31854L6.60383 7.31856C6.54925 7.37193 6.51945 7.4202 6.5064 7.46482C6.49378 7.50801 6.49449 7.5557 6.51476 7.61346L6.4204 7.64657M5.76634 0.742284L19.9982 15.7218L20.0982 15.7203C20.0982 15.7203 20.0982 15.7203 20.0982 15.7203C20.091 15.2272 19.8932 14.7475 19.4899 14.4189L19.4898 14.4189C18.5943 13.6896 17.6894 12.9709 16.7712 12.2694C15.8262 11.5468 14.5504 11.6365 13.6856 12.45C13.4413 12.6795 13.1976 12.9096 12.9545 13.1403L12.9359 13.158C12.8409 13.2481 12.7722 13.3133 12.7132 13.3603C12.6515 13.4095 12.6094 13.4312 12.5709 13.4397C12.5332 13.4481 12.4874 13.4462 12.4137 13.4259C12.3384 13.4052 12.2438 13.3683 12.1096 13.3137C9.92492 12.4252 8.21828 10.9689 7.01691 8.94417L7.01691 8.94416C6.9013 8.74937 6.81638 8.53338 6.73983 8.30628C6.70794 8.21168 6.6765 8.11176 6.64471 8.01075C6.60258 7.87687 6.55985 7.74108 6.51469 7.61326L6.4204 7.64657M5.76634 0.742284C5.27496 0.0988833 4.60847 -0.164531 3.84349 -0.0863941L5.76634 0.742284ZM6.4204 7.64657C6.46571 7.77482 6.50687 7.90576 6.54807 8.03683C6.65262 8.36945 6.75742 8.70288 6.93091 8.9952L6.93907 2.39689C7.15721 2.67066 7.37537 2.94445 7.59201 3.21944C8.35349 4.18568 8.28904 5.41674 7.43572 6.30536C7.3299 6.41545 7.22541 6.52696 7.12093 6.63846C6.92805 6.84429 6.73518 7.05012 6.53391 7.24706C6.40842 7.36977 6.36793 7.49704 6.4204 7.64657ZM16.6037 18.9744L16.6037 18.9743C17.2864 18.9426 17.8404 18.6606 18.2526 18.1199C18.718 17.509 18.947 16.7979 19.0232 16.036C19.0602 15.6625 18.9294 15.3498 18.607 15.1045C18.0922 14.7132 17.5838 14.3119 17.0762 13.9113C16.778 13.6759 16.4801 13.4407 16.1813 13.2079C15.8912 12.982 15.5863 12.8822 15.2914 12.897C14.9963 12.9119 14.7013 13.0419 14.4322 13.2939C14.4322 13.2939 14.4322 13.2939 14.4322 13.2939L14.3638 13.2209C14.2529 13.3247 14.1418 13.4285 14.0307 13.5323L16.6037 18.9744ZM16.6037 18.9744C16.4925 18.9796 16.383 18.9783 16.2571 18.9769C16.1935 18.9762 16.1256 18.9754 16.0513 18.9754C9.14887 18.8576 3.07144 13.9801 1.44676 7.2197C1.18009 6.10933 1.06026 4.98216 1.01252 3.8368C0.980029 3.05687 1.18424 2.50709 1.51465 2.10841C1.84699 1.70742 2.3149 1.44977 2.82574 1.2706L2.82578 1.27059C3.30372 1.10276 3.76396 0.94877 4.25416 1.04493L4.2543 1.04496M16.6037 18.9744L4.2543 1.04496M4.2543 1.04496C4.50802 1.09435 4.71109 1.19973 4.87315 1.40871C5.2786 1.93184 5.69087 2.45026 6.10267 2.96809C6.32956 3.25339 6.5563 3.53851 6.78168 3.82415C7.02192 4.12898 7.12843 4.44112 7.11437 4.74088C7.10031 5.04064 6.9651 5.34018 6.69943 5.61879M4.2543 1.04496L6.69943 5.61879M0.44873 1.67841C0.0521757 2.28504 -0.122358 3.03215 -0.0977181 3.92417L0.44873 1.67841ZM6.69943 5.61879C6.56633 5.75823 6.43446 5.89793 6.30281 6.0374M6.69943 5.61879L6.30281 6.0374M6.30281 6.0374C6.07293 6.28092 5.8437 6.52377 5.60963 6.76341L6.30281 6.0374ZM12.5923 14.6033L12.6201 14.5073L5.3812 7.39907C5.3812 7.3991 5.3812 7.39913 5.38121 7.39917C5.45015 8.3751 5.83328 9.23256 6.36628 10.0149L6.3663 10.0149C7.71019 11.9859 9.467 13.4662 11.7014 14.3514C11.8488 14.4098 12.0008 14.452 12.1503 14.4899C12.1951 14.5012 12.2393 14.5121 12.2831 14.5228C12.3877 14.5486 12.4902 14.5738 12.5922 14.6033C12.5923 14.6033 12.5923 14.6033 12.5923 14.6033Z" fill="white" stroke="white" stroke-width="0.2"/>
</g>
<defs>
<clipPath id="clip0_982_1675">
<rect width="20" height="20" fill="white"/>
</clipPath>
</defs>
</svg>
